<svg xmlns="http://www.w3.org/2000/svg" width="68.533" height="62.077" viewBox="0 0 68.533 62.077"><defs><style>.a{fill:#155e88;}</style></defs><g transform="translate(-107.35 -68.901)"><path class="a" d="M231.383,179.426c2.48-4.722,4.942-9.452,7.478-14.143a1.533,1.533,0,0,1,1.347-.493,10.731,10.731,0,0,1,2.526,1.014c2.262,1.192,4.512,2.407,6.734,3.671,4.26,2.428,8.66,4.442,13.9,4.635-.958,3.535-1.894,6.845-2.745,10.177-.687,2.7-1.268,4.945-4.73,5.9-3.91,1.084-7.542,2.588-11.695,1.354a5.659,5.659,0,0,0-3.2.393c-5.176,1.822-10.362.477-15.538.141-1.375-.09-1.808-1.1-1.134-2.4a5.859,5.859,0,0,1,4.257-3.13c2.8-.569,5.607-1.088,8.371-1.785A3.619,3.619,0,0,0,240,181.94c.084-.514-.336-1.114-.532-1.671-.018-.049-.1-.072-.137-.116-2.384-2.649-4.968-2.436-7.691-.213C231.552,179.769,231.468,179.6,231.383,179.426Z" transform="translate(-96.134 -78.991)"/><path class="a" d="M177.9,109.342c-.849.419-1.313.829-1.789.842a3.372,3.372,0,0,1-2.13-.442,1.988,1.988,0,0,1-.326-1.915c1.956-2.75,1.979-5.741,1.831-8.957-.155-3.375,1.989-6.074,3.841-8.7.5-.708,1.78-.878,2.718-1.252a2.26,2.26,0,0,1,1.074-.18c4.017.548,5.69-1.782,7.038-5.139,1.81-4.509,4.049-8.848,6.213-13.205.338-.681,1.294-1.537,1.907-1.495A6.94,6.94,0,0,1,201.5,70.19c.254.171,0,1.449-.324,2.063q-11.6,22.15-23.282,44.261c-.368.7-.768,1.384-1.106,2.1-.449.949-1.113,1.54-2.16,1.051-1.074-.5-.958-1.4-.512-2.327C175.325,114.816,176.511,112.284,177.9,109.342Z" transform="translate(-54.528 0)"/><path class="a" d="M438.861,226.521c-1.482-2.16-2.818-4.021-4.037-5.956a2.264,2.264,0,0,1,.016-1.553q1.7-6.332,3.482-12.64a2.212,2.212,0,0,1,.826-1.312c1.989-1.009,4.04-1.9,6.449-3C443.315,210.341,441.137,218.251,438.861,226.521Z" transform="translate(-269.714 -109.717)"/><path class="a" d="M107.35,374.436c2.415-1.331,3.037-3.711,3.928-5.956a5.942,5.942,0,0,1,9.19-2.583,2.545,2.545,0,0,1,.873,1.808,5.817,5.817,0,0,1-3.278,5.313C114.728,374.827,111.135,374.885,107.35,374.436Z" transform="translate(0 -243.692)"/></g></svg>