<svg xmlns="http://www.w3.org/2000/svg" width="73.921" height="75.652" viewBox="0 0 73.921 75.652"><defs><style>.a{fill:#155e88;}</style></defs><g transform="translate(-43.899 -23.99)"><path class="a" d="M114.458,303.9c-1.423-.343-2.828-.807-4.27-1.006a86.031,86.031,0,0,0-18.124-.434c-1.983.148-3.951.5-5.925.765A2,2,0,0,1,83.7,301.3c-.047-3.963-.018-7.926-.015-11.89,0-.044.038-.089.09-.2a8.934,8.934,0,0,0,7.221-3.737,8.713,8.713,0,0,0,1.695-5.395,9.051,9.051,0,0,0-8.947-8.846c0-1.318-.081-2.643.031-3.953a1.828,1.828,0,0,1,1.486-1.481,46.437,46.437,0,0,1,18.885-1.851,49.537,49.537,0,0,1,10.135,2.231,1.528,1.528,0,0,0,.913-.012,47.178,47.178,0,0,1,17.432-2.453,48.289,48.289,0,0,1,11.586,2.1,1.986,1.986,0,0,1,1.54,1.868c.061,1.176.015,2.357.015,3.6a8.965,8.965,0,0,0-6.961,3.366,8.607,8.607,0,0,0-1.97,5.6,8.7,8.7,0,0,0,2.6,6.314,9,9,0,0,0,6.343,2.652v.714q0,5.428,0,10.857c0,1.837-.959,2.7-2.76,2.386a80.162,80.162,0,0,0-17.663-.851,40,40,0,0,0-10.13,1.429,2.435,2.435,0,0,0-.327.155Z" transform="translate(-33.894 -204.257)"/><path class="a" d="M213.746,40.766A16.768,16.768,0,1,1,197,23.99,16.766,16.766,0,0,1,213.746,40.766Z" transform="translate(-116.17 0)"/><path class="a" d="M463.72,341.47a5.945,5.945,0,1,1,5.941,5.952A5.982,5.982,0,0,1,463.72,341.47Z" transform="translate(-357.789 -265.491)"/><path class="a" d="M55.789,341.623a5.945,5.945,0,1,1-5.958-5.953A5.935,5.935,0,0,1,55.789,341.623Z" transform="translate(0 -265.627)"/></g></svg>