<svg xmlns="http://www.w3.org/2000/svg" width="69.559" height="75.173" viewBox="0 0 69.559 75.173"><defs><style>.a{fill:#155e88;}</style></defs><g transform="translate(-149.74 -155.787)"><path class="a" d="M219.3,165.907c-5.647,3.14-10.921,6.137-16.27,9a2.555,2.555,0,0,0-1.648,2.926,51.772,51.772,0,0,1,.045,5.474h-31.6c1.523-5.313-1.79-7.478-6.111-9-.183,2.842-.356,5.665-.592,8.484a6.887,6.887,0,0,1-1.345.183c0-2.53-.107-4.962.036-7.376a2.955,2.955,0,0,0-1.9-3.269c-3.3-1.612-6.494-3.434-10.177-5.407l4.169-1.407c9.326-3.149,18.644-6.32,27.988-9.415a5.421,5.421,0,0,1,2.971-.178c11.045,3.1,22.069,6.275,33.092,9.442C218.311,165.466,218.64,165.636,219.3,165.907Z"/><path class="a" d="M166.59,300.109c.37-4.774.352-9.393,1.18-13.856.837-4.516,2.984-5.785,7.558-5.785q19.922,0,39.844,0c3.812,0,5.928,1.042,6.7,4.783.993,4.792,1.1,9.767,1.608,14.858Z" transform="translate(-9.345 -69.149)"/><path class="a" d="M208.968,220.64c4.672,0,9.344.049,14.016-.031a2.082,2.082,0,0,1,2.338,1.755,17.308,17.308,0,1,1-33.02-.1,2.107,2.107,0,0,1,2.423-1.652C199.473,220.676,204.22,220.64,208.968,220.64Z" transform="translate(-23.152 -35.952)"/><path class="a" d="M176.255,220.4c.441.592,1.015,1.015,1.069,1.492q.708,6.273,1.229,12.564a4.622,4.622,0,0,1-.334,2.793,3.635,3.635,0,0,1-2.521,1.314c-1.2.062-1.309-.873-1.162-2.04C175.173,231.347,175.654,226.154,176.255,220.4Z" transform="translate(-13.724 -35.836)"/></g></svg>