<svg xmlns="http://www.w3.org/2000/svg" width="71.033" height="75.45" viewBox="0 0 71.033 75.45"><defs><style>.a{fill:#155e88;}</style></defs><g transform="translate(-61.01 -167)"><path class="a" d="M174.586,167h49.877c.529,4.156.529,4.156,4.829,4.111.249,0,.5,0,.748,0a2.119,2.119,0,0,0,2.233-2.059c.091-.676.087-1.364.125-2.048h2.645v75.431h-2.637c-.249-3.491-.521-3.933-2.384-4.047-4.685-.283-4.685-.283-5.683,4.047H174.6c-.257-1.712.378-3.865-2.2-4.005-1.542-.083-3.333-.249-4.568.431-.869.48-.99,2.316-1.462,3.593h-2.331V240.1q-.017-36.546-.034-73.092h2.645c.06.552.144,1.1.17,1.655.064,1.341.608,2.494,2.048,2.388,1.84-.136,4.092,1.088,5.4-1.281a2.926,2.926,0,0,0,.227-1.084C174.552,168.122,174.56,167.559,174.586,167Zm24.946,35.171q9.346,0,18.689,0c2.445,0,3.257-.816,3.261-3.3q.023-12.458,0-24.919c0-2.158-.627-2.792-2.83-2.792q-19.163-.023-38.322,0c-2.2,0-2.77.616-2.773,2.834q-.017,12.458,0,24.919c0,2.486.793,3.253,3.284,3.257Q190.184,202.184,199.532,202.171Zm.378,5.229c-6.48,0-12.964-.019-19.444.008-2.286.008-2.9.661-2.9,2.928q-.011,12.084,0,24.167c0,2.921,1.028,3.915,3.994,3.915q18.126.006,36.247,0c2.943,0,3.677-.7,3.68-3.658q.023-12.271,0-24.545c0-2.43-.4-2.811-2.887-2.815Q209.256,207.383,199.91,207.4ZM170.6,223.655c2.705,0,3.242-.2,3.714-1.394,1.164-2.94-.181-4.954-3.31-4.957-.378,0-.752,0-1.13,0-2.418.019-3.015.6-3.049,2.978C166.78,223.183,167.3,223.655,170.6,223.655Zm57.951,0c1.273-.091,3.079.476,3.533-1.447.684-2.9.389-5.362-3.325-4.912a9.514,9.514,0,0,1-1.5.008c-1.712-.068-2.532.771-2.637,2.46C224.4,222.983,225.041,223.655,228.547,223.655Zm-57.74,4.179c-3.427,0-3.949.385-3.986,2.959-.042,2.811.525,3.378,3.4,3.386.5,0,1.005.011,1.5,0,2.022-.049,2.7-.714,2.781-2.705C174.635,228.409,174.05,227.838,170.808,227.834Zm57.513-.438c-1.152.544-2.815.778-3.359,1.685-1.606,2.675.019,5.09,3.14,5.1.438,0,.877.008,1.319,0,2.146-.038,2.823-.691,2.891-2.789C232.409,228.363,231.846,227.834,228.321,227.4Zm-57.642-45.777c1.553-.008,3.28.306,3.775-1.84.722-3.129-.351-4.474-3.533-4.474-.438,0-.877,0-1.315,0-2.1.03-2.69.589-2.781,2.641C166.685,181.041,167.294,181.623,170.679,181.619Zm57.694-6.741c-1.168.521-2.838.722-3.4,1.621-1.636,2.615.008,5.116,3.091,5.124.378,0,.752,0,1.13,0,2.479-.023,3.106-.654,3.117-3.121C232.322,175.759,231.789,175.305,228.373,174.878Zm-57.668,38.235c1.232-.132,2.857.506,3.6-1.345,1.171-2.913-.181-4.965-3.291-4.969-.438,0-.877-.008-1.315,0-2.207.038-2.807.62-2.879,2.77C166.723,212.607,167.26,213.113,170.706,213.113Zm57.8,0c1.224-.136,2.857.514,3.6-1.341,1.171-2.921-.178-4.969-3.287-4.973-.438,0-.877-.008-1.315,0-2.2.038-2.815.631-2.891,2.766C224.508,212.592,225.064,213.113,228.506,213.113Zm0-27.277c-3.465,0-3.964.435-3.9,3.386.049,2.271.623,2.83,2.943,2.86.688.008,1.375.015,2.063,0,1.942-.049,2.588-.673,2.69-2.562C232.473,186.422,231.869,185.836,228.51,185.836Zm.064,17.109c1.107-.412,2.785-.533,3.182-1.311a5.829,5.829,0,0,0,.147-4.092c-.2-.635-1.795-.862-2.789-1.186a4.435,4.435,0,0,0-1.307-.023c-2.656.015-3.2.559-3.2,3.166C224.618,202.174,225.128,202.586,228.574,202.945Zm-58.034-17.109c-1.205.147-3.1-.586-3.5,1.379-.737,3.6-.144,5.256,3.31,4.874a11.186,11.186,0,0,1,1.126-.008c2.414-.026,3.008-.608,3.034-2.97C174.545,186.27,174.038,185.836,170.539,185.836Zm.223,17.105c1.107-.412,2.789-.525,3.185-1.3a5.839,5.839,0,0,0,.159-4.088c-.2-.639-1.791-.869-2.781-1.2a4.31,4.31,0,0,0-1.307-.023c-2.675.015-3.208.54-3.2,3.155C166.825,202.182,167.324,202.586,170.762,202.941Z" transform="translate(-103)"/></g></svg>