<svg xmlns="http://www.w3.org/2000/svg" width="96.036" height="75.303" viewBox="0 0 96.036 75.303"><defs><style>.a{fill:#155e88;}</style></defs><g transform="translate(-97.295 -153.629)"><path class="a" d="M105.255,246.013c3.293,1.2,6.509,2.371,9.8,3.569-.71,1.963-1.4,3.875-2.1,5.833a2.219,2.219,0,0,0,1.8-.237c1.008-.585,1.966-1.261,2.946-1.9a40.2,40.2,0,0,1,3.538-2.274c3-1.534,6.042-1.182,9,.166a7.582,7.582,0,0,0,3.308.715c6.56-.043,13.12-.048,19.681-.048,3.152,0,6.3.051,9.455.041a3.459,3.459,0,0,0,1.4-.332,12.9,12.9,0,0,1,6.652-1.478,12.182,12.182,0,0,1,6.213,2.772c.853.636,1.7,1.284,2.591,1.863a3.892,3.892,0,0,0,2.749.761c-.7-1.953-1.394-3.86-2.124-5.884L189.974,246c.534,1.458,1.047,2.851,1.555,4.248q1.482,4.082,2.961,8.168a5.253,5.253,0,0,1-5.251,7.068c-6.77-.559-13.554-.947-20.334-1.4-2.147-.145-4.294-.268-6.438-.442-.574-.046-.766.066-.763.694q.031,14.986.013,29.973c0,1.419,0,1.427-1.371,1.782a50.009,50.009,0,0,1-21.912.776c-1.422-.266-2.818-.661-4.235-.957-.546-.115-.692-.383-.692-.922q.015-15.209,0-30.422c0-.952,0-.95-.929-.888q-13.294.888-26.586,1.772a5.179,5.179,0,0,1-5.266-7.022q2.144-5.881,4.273-11.768C105.069,246.465,105.153,246.273,105.255,246.013Z" transform="translate(-2.302 -68.792)"/><path class="a" d="M231.65,167.345a13.751,13.751,0,1,1,13.593,13.838A13.757,13.757,0,0,1,231.65,167.345Z" transform="translate(-100.059 0)"/><path class="a" d="M129.952,196.463a3.01,3.01,0,0,0,2.614,1.2.787.787,0,0,1,.488.212,3.1,3.1,0,0,0,2.154.8,1.149,1.149,0,0,1,.648.276,3.287,3.287,0,0,0,2.057.745,1.143,1.143,0,0,1,.656.237,3.323,3.323,0,0,0,1.94.773c-.1-.955-.186-1.835-.294-2.713a2.7,2.7,0,0,1,.646-2.315,1.544,1.544,0,0,1,1.613-.518,1.336,1.336,0,0,1,.99,1.281c.133,1.868.255,3.74.3,5.611a2.079,2.079,0,0,1-1.31,2.014c-1.631.781-3.242,1.606-4.85,2.438a1.912,1.912,0,0,1-1.654.089c-2.313-.865-4.633-1.708-6.951-2.565a1.44,1.44,0,0,1-1.064-1.937C128.538,200.238,129.248,198.415,129.952,196.463Z" transform="translate(-22.749 -30.887)"/><path class="a" d="M383.841,200.72a3.335,3.335,0,0,0,1.884-.789,1.375,1.375,0,0,1,.595-.245,4.144,4.144,0,0,0,1.345-.286,11.649,11.649,0,0,1,2.4-.924,24.206,24.206,0,0,1,3.081-1.11,4.524,4.524,0,0,0,1.187-.768c.051.115.138.278.2.447.577,1.557,1.154,3.114,1.718,4.674a1.6,1.6,0,0,1-1.082,2.356c-2.159.794-4.324,1.565-6.468,2.4a2.537,2.537,0,0,1-2.31-.1c-1.516-.819-3.063-1.588-4.618-2.331a2.027,2.027,0,0,1-1.246-1.986c.046-1.851.179-3.7.3-5.549a1.349,1.349,0,0,1,.99-1.345,1.581,1.581,0,0,1,1.692.623,2.588,2.588,0,0,1,.562,2.093c-.082.72-.163,1.44-.235,2.16C383.823,200.245,383.841,200.455,383.841,200.72Z" transform="translate(-210.934 -30.886)"/><path class="a" d="M447.448,175.954c-.008.125-.008.189-.015.253-.156,1.264-.932,1.6-2.609,2.04a1.764,1.764,0,0,1-2.052-1.33q-2.033-5.479-4.046-10.966c-.526-1.437-.087-2.315,1.361-2.833.24-.087.477-.184.722-.258a1.784,1.784,0,0,1,2.295,1.082q2.129,5.717,4.214,11.451A4.1,4.1,0,0,1,447.448,175.954Z" transform="translate(-254.117 -6.801)"/><path class="a" d="M202.413,200.716c-.084.271-.2.722-.36,1.159q-1.937,5.269-3.89,10.53a1.843,1.843,0,0,1-2.619,1.241c-.242-.082-.482-.166-.72-.26a1.856,1.856,0,0,1-1.182-2.606q2.041-5.571,4.1-11.135a1.8,1.8,0,0,1,2.494-1.177c.362.123.727.245,1.077.4A1.849,1.849,0,0,1,202.413,200.716Z" transform="translate(-71.627 -33.284)"/><path class="a" d="M348.537,213.8a1.847,1.847,0,0,1-1.922-1.138q-2.125-5.709-4.209-11.433a1.8,1.8,0,0,1,1.141-2.468c.3-.12.595-.232.9-.334a1.839,1.839,0,0,1,2.489,1.215q1.991,5.418,3.987,10.836c.6,1.623.225,2.422-1.391,2.994C349.147,213.605,348.765,213.725,348.537,213.8Z" transform="translate(-182.433 -33.265)"/><path class="a" d="M106.292,164.909c-.125.444-.2.8-.322,1.133q-1.991,5.426-4,10.846a1.841,1.841,0,0,1-2.634,1.218c-2.144-.776-2.428-1.358-1.646-3.489q1.9-5.188,3.821-10.369A1.848,1.848,0,0,1,104.229,163a5.5,5.5,0,0,1,1.575.9C106.072,164.125,106.146,164.59,106.292,164.909Z" transform="translate(0 -6.822)"/><path class="a" d="M388.027,177.232a1.68,1.68,0,0,1,2.6-1.07,5.861,5.861,0,0,1,1.141-1.1,1.375,1.375,0,0,1,2.027.689c.554,1.264,1.019,2.568,1.445,3.883a1.419,1.419,0,0,1-.47,1.675,1.637,1.637,0,0,1-2.111.008c-.567,1.5-1.828,1.68-2.614,1.115-.436.4-.789.924-1.271,1.113a4.537,4.537,0,0,1-1.611.01c0-.061-.008-.125-.01-.186-.176.324-.352.651-.526.975l-.212-.046c.041-.416.069-.835.13-1.248a3.541,3.541,0,0,0-.549-2.619,2.63,2.63,0,0,0-3.326-1.054c-.043-1.266,1.151-1.782,2.586-1.113A1.757,1.757,0,0,1,388.027,177.232Z" transform="translate(-212.526 -15.806)"/><path class="a" d="M146.009,177.238c1.1-.613,1.92-.3,2.563,1.1,1.353-.694,2.56-.207,2.6.909a8.554,8.554,0,0,0-2.07.189,3.125,3.125,0,0,0-1.851,3.145c.026.587.1,1.169.146,1.756-.059.023-.12.046-.179.071-.171-.309-.34-.62-.447-.814a10.02,10.02,0,0,1-1.7.043,1.233,1.233,0,0,1-1.039-1.052,5.213,5.213,0,0,1-1.71.015c-.475-.163-.83-.671-1.3-1.082a3.1,3.1,0,0,1-1.008.222,1.521,1.521,0,0,1-1.417-2.083c.385-1.258.865-2.491,1.361-3.712a1.433,1.433,0,0,1,1.424-1,1.529,1.529,0,0,1,1.6,1.179,5.253,5.253,0,0,1,1.726.01C145.18,176.294,145.524,176.8,146.009,177.238Z" transform="translate(-30.692 -15.871)"/><path class="a" d="M132.75,236.112a1.685,1.685,0,0,1-2.4,1.68c-2.19-.814-4.385-1.611-6.578-2.425a1.709,1.709,0,0,1,1.21-3.2c2.231.824,4.465,1.641,6.7,2.471A1.4,1.4,0,0,1,132.75,236.112Z" transform="translate(-18.88 -58.388)"/><path class="a" d="M418.59,233.971a1.38,1.38,0,0,1-1.011,1.45q-3.465,1.287-6.935,2.553a1.505,1.505,0,0,1-1.981-.983,1.572,1.572,0,0,1,.753-2.2c1.927-.73,3.865-1.429,5.8-2.139.34-.125.679-.248,1.018-.37A1.677,1.677,0,0,1,418.59,233.971Z" transform="translate(-231.766 -58.48)"/><path class="a" d="M126.915,187.843c-.107.651-.028,1.358-.337,1.784a20.323,20.323,0,0,0-1.481,3.352.449.449,0,0,1-.4.133c-.383-.112-.75-.276-1.184-.444l1.968-5.348C126.014,187.514,126.481,187.685,126.915,187.843Z" transform="translate(-19.523 -25.091)"/><path class="a" d="M433.92,188.137c.352-.138.738-.311,1.138-.431a.435.435,0,0,1,.38.184c.636,1.664,1.248,3.339,1.889,5.07l-1.519.551c-.309-.83-.569-1.593-.881-2.333a9.541,9.541,0,0,0-.592-1.021.9.9,0,0,1-.123-.278C434.114,189.324,434.025,188.762,433.92,188.137Z" transform="translate(-250.697 -25.374)"/><path class="a" d="M368.51,211.2l2.144-.781c.1,1.958-.756,4.038,1.187,5.631l-1.348.534C369.822,214.77,369.174,213.008,368.51,211.2Z" transform="translate(-201.984 -42.294)"/><path class="a" d="M189.13,216.054c1.945-1.611,1.123-3.663,1.195-5.654.722.26,1.389.5,2.154.779-.659,1.8-1.307,3.561-1.973,5.376Z" transform="translate(-68.393 -42.279)"/></g></svg>