<svg xmlns="http://www.w3.org/2000/svg" width="273.284" height="53.881" viewBox="0 0 273.284 53.881"><defs><style>.a{fill:#cc4c6e;}.b{fill:#f3b541;}.c{fill:#4cb3aa;}.d{fill:#842c68;}</style></defs><g transform="translate(-0.042 0.02)"><path class="a" d="M34.015,53.753h0a8.281,8.281,0,0,1-9.459-6.731L18.189,9.549A8.281,8.281,0,0,1,24.92.089h0A8.281,8.281,0,0,1,34.379,6.82l6.367,37.474A8.281,8.281,0,0,1,34.015,53.753Z" transform="translate(-1.631 0)"/><path class="a" d="M59.113,53.753h0a8.281,8.281,0,0,1-9.459-6.731L43.287,9.549A8.149,8.149,0,0,1,49.926.089h0A8.281,8.281,0,0,1,59.386,6.82l6.367,37.474A8.149,8.149,0,0,1,59.113,53.753Z" transform="translate(-3.899 0)"/><path class="b" d="M4.915,53.122h0A8.243,8.243,0,0,1,.731,42.3L17.194,4.915A8.243,8.243,0,0,1,28.018.731h0A8.243,8.243,0,0,1,32.2,11.555L15.648,48.938A8.094,8.094,0,0,1,4.915,53.122Z" transform="translate(0 -0.006)"/><path class="c" d="M29.915,53.122h0A8.243,8.243,0,0,1,25.731,42.3L42.194,4.915A8.243,8.243,0,0,1,53.018.731h0A8.243,8.243,0,0,1,57.2,11.555L40.739,48.938A8.226,8.226,0,0,1,29.915,53.122Z" transform="translate(-2.261 -0.006)"/><path class="d" d="M54.915,53.122h0A8.243,8.243,0,0,1,50.731,42.3L67.285,4.915A8.243,8.243,0,0,1,78.109.731h0a8.243,8.243,0,0,1,4.184,10.824L65.739,48.938A8.167,8.167,0,0,1,54.915,53.122Z" transform="translate(-4.522 -0.006)"/><g transform="translate(90.414 15.915)"><path d="M101.219,18.446a.524.524,0,0,1,.546-.546h.364c.364,0,.546.091.637.455L109.5,32.817c.546,1.182,1.182,2.638,1.182,2.638h.091s.637-1.546,1.182-2.638l6.731-14.462a.684.684,0,0,1,.637-.455h.364a.482.482,0,0,1,.546.546L122.048,41c0,.364-.182.637-.546.637h-.273a.482.482,0,0,1-.546-.546l-1.455-17.554c-.091-1.182-.091-3.183-.091-3.183h-.091s-.637,2-1.182,3.183l-6.094,13.1a.684.684,0,0,1-.637.455h-.546c-.364,0-.546-.091-.637-.455l-6.094-13.1c-.546-1.091-1.273-3.183-1.273-3.183h-.091s0,2.092-.091,3.183l-1.546,17.645a.524.524,0,0,1-.546.546h-.364c-.364,0-.546-.182-.546-.637Z" transform="translate(-99.4 -17.536)"/><path d="M136.652,18.455a.582.582,0,0,1,.637-.455h.637a.582.582,0,0,1,.637.455l8.459,22.557c.091.364,0,.637-.455.637H146.2a.582.582,0,0,1-.637-.455l-3-7.731H132.559l-2.911,7.731a.582.582,0,0,1-.637.455h-.364c-.455,0-.637-.273-.455-.637ZM142.109,32.1l-3.638-9.641c-.364-1-.91-2.82-.91-2.82h-.091s-.546,1.819-.91,2.82L132.923,32.1Z" transform="translate(-101.998 -17.545)"/><path d="M156.628,31.371l-7.64-12.734c-.273-.364-.091-.637.364-.637h.364a.609.609,0,0,1,.637.364l5.366,9c.637,1.182,1.455,2.638,1.455,2.638h.091a24.65,24.65,0,0,1,1.455-2.638l5.366-9a.687.687,0,0,1,.637-.364h.364c.455,0,.637.273.364.637l-7.64,12.734V41.1a.482.482,0,0,1-.546.546h-.091a.482.482,0,0,1-.546-.546Z" transform="translate(-103.873 -17.545)"/><path d="M172.2,18.546a.482.482,0,0,1,.546-.546h.364a.827.827,0,0,1,.728.364l13.28,18.282c.819,1.091,1.91,3,1.91,3h.091s-.182-1.819-.182-3v-18.1a.482.482,0,0,1,.546-.546h.273a.482.482,0,0,1,.546.546V41.1a.482.482,0,0,1-.546.546h-.364a.827.827,0,0,1-.728-.364L175.383,23c-.819-1.091-1.91-3-1.91-3h-.091s.182,1.819.182,3V41.012a.482.482,0,0,1-.546.546h-.273a.482.482,0,0,1-.546-.546Z" transform="translate(-105.984 -17.545)"/><path d="M210.106,17.5a11.846,11.846,0,0,1,12.006,12.1c0,7-5.184,12.461-12.006,12.461S198.1,36.6,198.1,29.6A11.846,11.846,0,0,1,210.106,17.5Zm0,23.194c6,0,10.46-4.821,10.46-11.1a10.463,10.463,0,1,0-20.92,0C199.646,35.873,204.1,40.694,210.106,40.694Z" transform="translate(-108.327 -17.5)"/><path d="M240.606,17.5a11.846,11.846,0,0,1,12.006,12.1c0,7-5.184,12.461-12.006,12.461S228.6,36.6,228.6,29.6A11.846,11.846,0,0,1,240.606,17.5Zm0,23.194c6,0,10.46-4.821,10.46-11.1a10.463,10.463,0,1,0-20.92,0C230.146,35.873,234.6,40.694,240.606,40.694Z" transform="translate(-111.085 -17.5)"/><path d="M264.523,19.273h-8.277a.482.482,0,0,1-.546-.546v-.182a.482.482,0,0,1,.546-.546h18.009a.482.482,0,0,1,.546.546v.182a.482.482,0,0,1-.546.546h-8.277V41.1a.482.482,0,0,1-.546.546h-.364a.482.482,0,0,1-.546-.546Z" transform="translate(-113.536 -17.545)"/><path d="M280.8,18.546a.482.482,0,0,1,.546-.546h.273a.482.482,0,0,1,.546.546V29.1h15.19V18.546A.482.482,0,0,1,297.9,18h.273a.482.482,0,0,1,.546.546V41.1a.482.482,0,0,1-.546.546H297.9a.482.482,0,0,1-.546-.546V30.461h-15.1V41.1a.482.482,0,0,1-.546.546h-.273a.482.482,0,0,1-.546-.546V18.546Z" transform="translate(-115.806 -17.545)"/></g></g></svg>