<svg xmlns="http://www.w3.org/2000/svg" width="94.934" height="77.019" viewBox="0 0 94.934 77.019"><defs><style>.a{fill:#155e88;}.b,.c{fill:none;}.b{stroke:#155e88;stroke-miterlimit:10;stroke-width:2px;stroke-dasharray:4 8;}</style></defs><g transform="translate(-147.074 -148.116)"><g transform="translate(165.455 163.115)"><path class="a" d="M247.033,210.1a31.017,31.017,0,1,1-30.822-31.141A30.933,30.933,0,0,1,247.033,210.1Zm-13.784,5.844c-2.922-1.552-4.84-3.513-5.506-6.519,1.824,2.134,3.349.178,5.126-.155-.464-.9-.844-1.632-1.247-2.415l-6.444,2.537c-.328-1.66-.61-3.053-.886-4.446-1.215.446-2.425.9-3.818,1.407-.07-.066-.553-.516-1.224-1.135-.666,1.041-1.219,1.913-1.777,2.79-1.116.1-2.214.192-3.771.328.605-1.144,1.205-1.782,1.257-2.467.178-2.453,1.749-2.791,3.761-3.513,2.171-.779,5.257-1.5,4.882-5.332,5.558,1.229,9.169-1.36,12-5.534-9.567-11.518-30.348-11.317-39.644.417a2.591,2.591,0,0,0-.089,2.139c.436,1.088.91,1.951-.446,2.753-.478.281-.7.99-1.051,1.491a2.839,2.839,0,0,0,.844,4.305c1.693,1.027,3,.628,3.986-1.215.741-1.388,2.988-2,3.7-.91,1.163,1.787,2.148,3.686,3.184,5.5-.117.15-.164.258-.216.263-2.049.249-1.96,2.565-3.077,3.311-1.177.788-3.189.216-4.774.539a54.9,54.9,0,0,0-5.436,1.7c.192,1.468-.708,2.87-3.133,3.184a25.251,25.251,0,0,0,10.97,16.621,9.66,9.66,0,0,0,.056-4.695c-.464-1.379-1.7-2.481-2.49-3.771-1.5-2.453-1.834-5.74-5.089-6.946-.267-.1-.291-.858-.544-1.7h9.929c1.369,1.14,2.453,1.988,3.47,2.912.356.324.835.863.783,1.238-.356,2.617,1.069,3.058,3.2,2.842a7,7,0,0,1,1.684.277,19.371,19.371,0,0,1-8.836,11.678c1.337.675,2,1.055,2.7,1.36,14.29,6.228,30.757-1,36.347-15.631,1.083-2.833-.394-4.568-1.491-6.252-.647-.994-3.025-.863-4.62-1.238.084.267.169.53.253.8C234.91,213.656,234.066,214.819,233.25,215.944Z" transform="translate(-184.999 -178.96)"/><path class="a" d="M264.856,255.229c-.432.216-1.3.647-2.176,1.083,1.412,3.789,1.37,3.747-1.595,6.683a4.492,4.492,0,0,0-.713,2.354,20.128,20.128,0,0,0-.131,2.472c-2.683.492-4.873-.943-5.314-3.288-.46-2.439-.957-4.868-1.463-7.438-.943.089-1.848.192-2.753.258a3.241,3.241,0,0,1-3.766-2.387,6.871,6.871,0,0,0-1.28-2.185c-.844-1.027-1.979-1.928-1.055-3.447.933-1.538,1.824-3.124,4.09-2.833a26.268,26.268,0,0,0,3.274.023c5.22,0,5.154.052,8.25,3.968A59.525,59.525,0,0,0,264.856,255.229Z" transform="translate(-216.47 -214.806)"/><path class="a" d="M219.63,204.137c.694-.835,1.435-2.359,2.636-2.978a5.337,5.337,0,0,1,4.146-.188c1.81.835,3.288,2.387,5.337,3.968-2.406,1.154-4.169,2-5.328,2.551-1.116,1.984-2.012,3.569-2.9,5.154-.3-.014-.6-.028-.891-.038C221.647,209.84,220.671,207.073,219.63,204.137Z" transform="translate(-203.389 -190.47)"/><path class="a" d="M260.141,213.738v3.588c-.98-.352-1.707-.61-3.091-1.1,1.055-1.163,1.867-2.064,2.683-2.964C259.869,213.424,260,213.579,260.141,213.738Z" transform="translate(-223.259 -197.173)"/></g><g transform="translate(148.193 149.12)"><path class="b" d="M314.987,174.435a24.312,24.312,0,0,0-2.007-1.965" transform="translate(-235.696 -161.519)"/><path class="b" d="M220.866,156.54c-8.789-5.815-26.085-12.691-50.379-1.21-27.483,16.865-24.5,50.074-17.531,63.553" transform="translate(-148.193 -149.12)"/><path class="c" d="M161.51,303.19a12.154,12.154,0,0,0,1.834,2.124" transform="translate(-155.264 -230.933)"/></g><path class="a" d="M331.646,193.548l.319-1.435-3.189-3.194.8-9.263-1.28-.957-2.87,7.185-2.078-2.232.319-3.672-1.435-.483-.638,3.672-3.832.961.319,1.116,3.513-.319,2.392,1.913-6.383,3.194.957,1.28,8.3-.8,3.194,2.715Z" transform="translate(-89.957 -15.707)"/></g></svg>