<svg xmlns="http://www.w3.org/2000/svg" width="74.961" height="73.087" viewBox="0 0 74.961 73.087"><defs><style>.a{fill:#2e001e;}.b{fill:#ff2bc2;}</style></defs><path class="a" d="M10,10H78.714V76.84H10Z" transform="translate(-6.877 -6.877)"/><path class="b" d="M0,0V73.087H74.961V0ZM3.123,3.123H71.838v66.84H3.123Z"/><path class="b" d="M85.527,68.868a4.289,4.289,0,0,0-1.812-.312c-3.935,0-6.559,3.03-6.559,8.058,0,5.747,2.686,8.058,6.184,8.058a5.893,5.893,0,0,0,2.155-.344V68.868Zm-13.993,8C71.534,69.586,76.22,63.9,83.9,63.9a13.851,13.851,0,0,1,1.624.062V55.844a.313.313,0,0,1,.312-.312h5.029c.25,0,.312.094.312.25V84.329a22.247,22.247,0,0,0,.156,3.061c0,.219,0,.25-.187.344a18.605,18.605,0,0,1-8,1.812C76.376,89.545,71.534,85.359,71.534,76.864ZM60.884,71.8l8.745,16.96c.156.25.062.5-.187.5H64.007a.613.613,0,0,1-.656-.406q-3-6.184-6.122-12.837h-.062c-1.874,4.185-3.935,8.745-5.934,12.868a.6.6,0,0,1-.562.344H45.485c-.312,0-.344-.25-.187-.437l8.558-16.46L45.579,55.969A.277.277,0,0,1,45.8,55.5H51.17c.312,0,.469.062.562.344C53.7,60,55.7,64.089,57.573,68.275h.062c1.812-4.123,3.811-8.277,5.716-12.369.156-.25.25-.406.562-.406h5.029c.25,0,.344.187.187.469L60.884,71.8Z" transform="translate(-31.087 -38.165)"/></svg>